<svg width="40" height="41" viewBox="0 0 40 41" fill="none" xmlns="http://www.w3.org/2000/svg">
<g clip-path="url(#clip0_2_68)">
<path d="M20 6.83334C12.6362 6.83334 6.66669 12.9521 6.66669 20.5C6.66669 28.0479 12.6362 34.1667 20 34.1667C27.3639 34.1667 33.3334 28.0479 33.3334 20.5C33.3249 12.9557 27.3604 6.84196 20 6.83334ZM20 32.8C13.3726 32.8 8.00002 27.2931 8.00002 20.5C8.00002 13.7069 13.3726 8.2 20 8.2C26.6274 8.2 32 13.7069 32 20.5C31.9923 27.2899 26.6243 32.792 20 32.8Z" fill="#0090FF"/>
<path d="M38.9887 4.22984C38.3772 3.96863 37.6722 4.1123 37.2047 4.59337C35.5742 6.25601 34.6604 8.51792 34.6667 10.8753V19.8167C34.6702 20.6823 35.2037 21.4524 36 21.7409V34.85C36 35.9822 36.8954 36.9 38 36.9C39.1046 36.9 40 35.9822 40 34.85V5.78032C40.0013 5.10092 39.6017 4.48822 38.9887 4.22984ZM38.6667 34.85C38.6667 35.2274 38.3682 35.5333 38 35.5333C37.6318 35.5333 37.3333 35.2274 37.3333 34.85V21.8667H38.6667V34.85ZM38.6667 20.5H36.6667C36.2985 20.5 36 20.194 36 19.8167V10.8753C35.995 8.88069 36.7684 6.96693 38.148 5.56029C38.2017 5.50135 38.2767 5.46752 38.3553 5.46667C38.398 5.46718 38.4401 5.47624 38.4793 5.49332C38.5954 5.53825 38.6707 5.6539 38.6667 5.781V20.5Z" fill="#0090FF"/>
<path d="M14.6667 15.7167C13.1939 15.7167 12 16.9404 12 18.45C12 19.9596 13.1939 21.1833 14.6667 21.1833C16.1394 21.1833 17.3333 19.9596 17.3333 18.45C17.3333 16.9404 16.1394 15.7167 14.6667 15.7167ZM14.6667 19.8167C13.9303 19.8167 13.3333 19.2048 13.3333 18.45C13.3333 17.6952 13.9303 17.0833 14.6667 17.0833C15.4031 17.0833 16 17.6952 16 18.45C16 19.2048 15.4031 19.8167 14.6667 19.8167Z" fill="#0090FF"/>
<path d="M20.0573 16.1759L18.8853 14.9746C18.7447 14.8312 18.6659 14.636 18.6667 14.4327C18.6652 13.2555 17.7345 12.3015 16.586 12.3H13.9193C13.3677 12.3015 12.8391 12.5258 12.448 12.9246L9.94265 15.4925C9.55115 15.8916 9.33174 16.4347 9.33332 17.0007V19.8994C9.33174 20.4653 9.55115 21.0084 9.94265 21.4075L11.1147 22.6088C11.2553 22.7522 11.3341 22.9474 11.3333 23.1507C11.3348 24.3279 12.2655 25.2818 13.414 25.2833H14.7473C15.2989 25.2819 15.8276 25.0574 16.2187 24.6588L18.0573 22.7741C18.198 22.6312 18.3879 22.5506 18.586 22.55C19.7345 22.5485 20.6652 21.5945 20.6667 20.4173V17.684C20.6682 17.118 20.4488 16.5749 20.0573 16.1759ZM19.3333 20.4173C19.333 20.8402 18.9986 21.183 18.586 21.1833C18.0344 21.1848 17.5057 21.4092 17.1147 21.8079L15.276 23.6925C15.1353 23.8355 14.9454 23.9161 14.7473 23.9167H13.414C13.0014 23.9163 12.667 23.5736 12.6667 23.1507C12.6682 22.5847 12.4488 22.0416 12.0573 21.6425L10.8853 20.4412C10.7447 20.2978 10.6659 20.1026 10.6667 19.8994V17.0007C10.666 16.7974 10.7447 16.6022 10.8853 16.4588L13.3907 13.8908C13.5313 13.7478 13.7212 13.6673 13.9193 13.6667H16.586C16.9986 13.667 17.333 14.0098 17.3333 14.4327C17.3317 14.9987 17.5512 15.5417 17.9427 15.9408L19.1147 17.1421C19.2553 17.2855 19.3341 17.4807 19.3333 17.684V20.4173Z" fill="#0090FF"/>
<path d="M26.4713 22.0669L23.8046 19.3336C23.5442 19.0667 23.1221 19.0668 22.8618 19.3337C22.7369 19.4618 22.6666 19.6356 22.6666 19.8167V21.1833C22.6666 21.5607 22.3681 21.8667 22 21.8667C20.8954 21.8667 20 22.7845 20 23.9167C20 24.294 19.7015 24.6 19.3333 24.6C18.2287 24.6 17.3333 25.5178 17.3333 26.65C17.3333 27.0274 17.0348 27.3333 16.6666 27.3333H15.3333C14.9651 27.3334 14.6667 27.6394 14.6668 28.0168C14.6668 28.198 14.7371 28.3717 14.862 28.4998L17.5286 31.2331C17.6536 31.3612 17.8231 31.4333 18 31.4333H19.3333C20.4379 31.4333 21.3333 30.5155 21.3333 29.3833C21.3333 29.006 21.6318 28.7 22 28.7C23.1046 28.7 24 27.7822 24 26.65C24 26.2726 24.2985 25.9667 24.6666 25.9667C25.7712 25.9667 26.6666 25.0489 26.6666 23.9167V22.55C26.6666 22.3688 26.5963 22.195 26.4713 22.0669ZM25.3333 23.9167C25.3333 24.294 25.0348 24.6 24.6666 24.6C23.5621 24.6 22.6666 25.5178 22.6666 26.65C22.6666 27.0274 22.3681 27.3333 22 27.3333C20.8954 27.3333 20 28.2511 20 29.3833C20 29.7607 19.7015 30.0667 19.3333 30.0667H18.276L16.926 28.6829C17.9219 28.5494 18.6667 27.6795 18.6666 26.65C18.6666 26.2726 18.9651 25.9667 19.3333 25.9667C20.4379 25.9667 21.3333 25.0489 21.3333 23.9167C21.3333 23.5393 21.6318 23.2333 22 23.2333C23.0044 23.2334 23.8531 22.47 23.9833 21.4492L25.3333 22.8329V23.9167Z" fill="#0090FF"/>
<path d="M29.9193 16.7171L29.8046 16.6002L26.4713 13.1835L23.6899 10.3334C22.693 9.31195 21.0771 9.3122 20.0806 10.334C19.0841 11.3558 19.0844 13.0122 20.0813 14.0336L20.1959 14.1505L23.5293 17.5671L26.3106 20.4173C27.3075 21.4387 28.9234 21.4384 29.9199 20.4166C30.9164 19.3948 30.9162 17.7385 29.9193 16.7171ZM21.1053 11.2231C21.3235 11.0366 21.5985 10.9341 21.8826 10.9333H21.8853C22.2083 10.9344 22.5179 11.0657 22.7473 11.2989L24.3906 12.9833H20.9493C20.5181 12.4531 20.5879 11.665 21.1053 11.2231ZM22.2759 14.35H25.7239L27.7239 16.4H24.2759L22.2759 14.35ZM28.8946 19.5269C28.6763 19.7134 28.4013 19.8159 28.1173 19.8167H28.1146C27.7914 19.8155 27.4818 19.684 27.2526 19.4504L25.6093 17.7667H29.0506C29.4818 18.2969 29.4119 19.085 28.8946 19.5269Z" fill="#0090FF"/>
<path d="M5.33333 4.1V9.56666H4V4.1H2.66667V9.56666H1.33333V4.1H0V12.9833C0.00325 14.053 0.497083 15.0589 1.33333 15.6989V34.85C1.33333 35.9822 2.22875 36.9 3.33333 36.9C4.43792 36.9 5.33333 35.9822 5.33333 34.85V15.6989C6.16959 15.0589 6.66342 14.053 6.66667 12.9833V4.1H5.33333ZM4 34.85C4 35.2274 3.7015 35.5333 3.33333 35.5333C2.96517 35.5333 2.66667 35.2274 2.66667 34.85V16.4H4V34.85ZM5.33333 12.9833C5.33333 14.1155 4.43792 15.0333 3.33333 15.0333C2.22875 15.0333 1.33333 14.1155 1.33333 12.9833V10.9333H5.33333V12.9833Z" fill="#0090FF"/>
</g>
<defs>
<clipPath id="clip0_2_68">
<rect width="40" height="41" fill="white"/>
</clipPath>
</defs>
</svg>
